<?xml version="1.0" encoding="utf-8"?>
<!-- Generator: Adobe Illustrator 19.2.0, SVG Export Plug-In . SVG Version: 6.00 Build 0)  -->
<svg version="1.1" id="Layer_1" xmlns="http://www.w3.org/2000/svg" xmlns:xlink="http://www.w3.org/1999/xlink" x="0px" y="0px"
	 viewBox="0 0 1024 223.5" style="enable-background:new 0 0 1024 223.5;" xml:space="preserve">
<style type="text/css">
	.st0{fill:#578FC1;}
	.st1{fill:#FFFFFF;}
</style>
<path class="st0" d="M1027.8,129c0-23.9-11.8-43.3-26.7-43.3c-5.5,0-10.5,2.7-14.8,7.3c-4.3-4.6-9.4-7.3-14.9-7.3
	c-0.3,0-0.5,0-0.8,0c-5.1-14.7-14.9-24.6-26.1-24.6c-8.9,0-16.9,6.3-22.4,16.2c-0.7-0.1-1.5-0.2-2.2-0.2c-5.7,0-10.9,2.8-15.2,7.6
	c-2.4-1.3-5-2.1-7.6-2.1c-4,0-7.8,1.7-11.1,4.6c-3.4,1.5-6.5,4-9.3,7.3c-3.7-4.1-8.2-6.4-13-6.4c-3,0-5.9,0.9-8.5,2.6
	c-4.5-5.4-10.1-8.7-16.2-8.7c-5.5,0-10.7,2.7-15,7.3c0,0-0.1-0.1-0.1-0.1c-4.7-8.7-11.5-14.4-19.1-14.9
	c-5.5-10.3-13.6-16.9-22.8-16.9c-5.3,0-10.2,2.2-14.5,6c-5.4-8.5-12.8-13.8-21-13.8c-8.9,0-16.9,6.3-22.4,16.2
	c-0.7-0.1-1.5-0.2-2.2-0.2c-6.9,0-13.2,4.2-18,11c-2.8-1.6-5.8-2.5-9-2.5c-9.5,0-17.8,7.8-22.6,19.7c-4.6-5.9-10.4-9.4-16.7-9.4
	c-1.8,0-3.5,0.3-5.1,0.8c-2.3-1-4.8-1.6-7.3-1.6c-3.3,0-6.5,1-9.5,2.8c-2.5-1.3-5.2-2-8-2c-0.3,0-0.5,0-0.8,0
	c-5.1-14.7-14.9-24.6-26.1-24.6c-1.7,0-3.4,0.2-5,0.7c-2.4-1-4.9-1.5-7.4-1.5c-5.3,0-10.2,2.2-14.5,6c-5.4-8.5-12.8-13.8-21-13.8
	c-8.9,0-16.9,6.3-22.4,16.2c-0.7-0.1-1.5-0.2-2.2-0.2c-6.9,0-13.2,4.2-18,11c-2.8-1.6-5.8-2.5-9-2.5c-5.6,0-10.8,2.7-15.1,7.4
	c-2.1,1.2-4.1,2.8-5.9,4.8c0,0-0.1-0.1-0.1-0.1c-4.7-8.7-11.5-14.4-19.1-14.9c-5.5-10.3-13.6-16.9-22.8-16.9c-5.3,0-10.2,2.2-14.5,6
	c-5.4-8.5-12.8-13.8-21-13.8c-8.9,0-16.9,6.3-22.4,16.2c-0.7-0.1-1.5-0.2-2.2-0.2c-6.9,0-13.2,4.2-18,11c-2.8-1.6-5.8-2.5-9-2.5
	c-11.9,0-22.1,12.5-25.6,29.7c-4.7,6.1-7.7,15.8-7.7,26.3c0,6.7,1.2,13.5,3.3,18.5H287v29h736v-24.2
	C1027,145.5,1027.8,137.6,1027.8,129z"/>
<g>
	<path class="st0" d="M794.1,107c0-23.9-13.3-43.3-30-43.3c-6.2,0-11.9,2.7-16.7,7.3c-4.8-4.6-10.5-7.3-16.7-7.3c-0.3,0-0.6,0-0.9,0
		c-5.7-14.7-16.7-24.6-29.2-24.6c-10,0-18.9,6.3-25,16.2c-0.8-0.1-1.6-0.2-2.5-0.2c-6.3,0-12.2,2.8-17,7.6c-2.7-1.3-5.5-2.1-8.5-2.1
		c-4.5,0-8.7,1.7-12.4,4.6c-3.8,1.5-7.3,4-10.4,7.3c-4.1-4.1-9.1-6.4-14.5-6.4c-3.4,0-6.6,0.9-9.5,2.6c-5-5.4-11.3-8.7-18.1-8.7
		c-6.2,0-12,2.7-16.8,7.3c0,0-0.1-0.1-0.1-0.1c-5.2-8.7-12.8-14.4-21.3-14.9c-6.1-10.3-15.3-16.9-25.5-16.9c-5.9,0-11.4,2.2-16.2,6
		c-6-8.5-14.3-13.8-23.5-13.8c-10,0-18.9,6.3-25,16.2c-0.8-0.1-1.6-0.2-2.5-0.2c-7.7,0-14.8,4.2-20.1,11c-3.1-1.6-6.5-2.5-10-2.5
		c-10.6,0-19.9,7.8-25.3,19.7c-5.1-5.9-11.7-9.4-18.7-9.4c-2,0-3.9,0.3-5.7,0.8c-2.6-1-5.3-1.6-8.1-1.6c-3.7,0-7.3,1-10.6,2.8
		c-2.8-1.3-5.9-2-9-2c-0.3,0-0.6,0-0.9,0c-5.7-14.7-16.7-24.6-29.2-24.6c-1.9,0-3.8,0.2-5.6,0.7c-2.7-1-5.4-1.5-8.3-1.5
		c-5.9,0-11.4,2.2-16.2,6c-6-8.5-14.3-13.8-23.5-13.8c-10,0-18.9,6.3-25,16.2c-0.8-0.1-1.6-0.2-2.5-0.2c-7.7,0-14.8,4.2-20.1,11
		c-3.1-1.6-6.5-2.5-10-2.5c-6.2,0-12,2.7-16.9,7.4c-2.4,1.2-4.6,2.8-6.7,4.8c0,0-0.1-0.1-0.1-0.1c-5.2-8.7-12.8-14.4-21.3-14.9
		c-6.1-10.3-15.3-16.9-25.5-16.9c-5.9,0-11.4,2.2-16.2,6c-6-8.5-14.3-13.8-23.5-13.8c-10,0-18.9,6.3-25,16.2
		c-0.8-0.1-1.6-0.2-2.5-0.2c-7.7,0-14.8,4.2-20.1,11c-3.1-1.6-6.5-2.5-10-2.5C21.7,51,10.4,63.5,6.4,80.8C1.1,86.9-2.3,96.6-2.3,107
		c0,6.7,1.4,13.5,3.7,18.5H-35v29h824v-24.2C792,123.5,794.1,115.6,794.1,107z"/>
</g>
<path class="st1" d="M1032.5,177c0-23.9-17.4-43.3-39.1-43.3c-8.1,0-15.5,2.7-21.7,7.3c-6.2-4.6-13.7-7.3-21.8-7.3
	c-0.4,0-0.8,0-1.2,0c-7.5-14.7-21.7-24.6-38.1-24.6c-13,0-24.6,6.3-32.6,16.2c-1.1-0.1-2.1-0.2-3.2-0.2c-8.2,0-15.9,2.8-22.2,7.6
	c-3.5-1.3-7.2-2.1-11.1-2.1c-5.9,0-11.4,1.7-16.1,4.6c-5,1.5-9.5,4-13.5,7.3c-5.4-4.1-11.9-6.4-18.9-6.4c-4.4,0-8.5,0.9-12.4,2.6
	c-6.6-5.4-14.7-8.7-23.6-8.7c-8.1,0-15.6,2.7-21.8,7.3c0,0-0.1-0.1-0.1-0.1c-6.8-8.7-16.7-14.4-27.8-14.9
	c-8-10.3-19.9-16.9-33.2-16.9c-7.6,0-14.8,2.2-21.1,6c-7.9-8.5-18.7-13.8-30.5-13.8c-13,0-24.6,6.3-32.6,16.2
	c-1.1-0.1-2.1-0.2-3.2-0.2c-10.1,0-19.2,4.2-26.2,11c-4.1-1.6-8.5-2.5-13.1-2.5c-13.8,0-25.9,7.8-32.9,19.7
	c-6.7-5.9-15.2-9.4-24.4-9.4c-2.6,0-5.1,0.3-7.5,0.8c-3.4-1-6.9-1.6-10.6-1.6c-4.9,0-9.5,1-13.8,2.8c-3.7-1.3-7.6-2-11.7-2
	c-0.4,0-0.8,0-1.2,0c-7.5-14.7-21.7-24.6-38.1-24.6c-2.5,0-4.9,0.2-7.3,0.7c-3.5-1-7.1-1.5-10.8-1.5c-7.6,0-14.8,2.2-21.1,6
	c-7.9-8.5-18.7-13.8-30.5-13.8c-13,0-24.6,6.3-32.6,16.2c-1.1-0.1-2.1-0.2-3.2-0.2c-10.1,0-19.2,4.2-26.2,11
	c-4.1-1.6-8.5-2.5-13.1-2.5c-8.1,0-15.7,2.7-21.9,7.4c-3.1,1.2-6,2.8-8.7,4.8c0,0-0.1-0.1-0.1-0.1c-6.8-8.7-16.7-14.4-27.8-14.9
	c-8-10.3-19.9-16.9-33.2-16.9c-7.6,0-14.8,2.2-21.1,6c-7.9-8.5-18.7-13.8-30.5-13.8c-13,0-24.6,6.3-32.6,16.2
	c-1.1-0.1-2.1-0.2-3.2-0.2c-10.1,0-19.2,4.2-26.2,11c-4.1-1.6-8.5-2.5-13.1-2.5c-17.4,0-32.1,12.5-37.3,29.7
	C0,156.9-4.4,166.6-4.4,177c0,6.7,1.8,13.5,4.9,18.5H-47v29h1073v-24.2C1030,193.5,1032.5,185.6,1032.5,177z"/>
</svg>
