<?xml version="1.0" encoding="utf-8"?>
<!-- Generator: Adobe Illustrator 19.2.0, SVG Export Plug-In . SVG Version: 6.00 Build 0)  -->
<svg version="1.1" id="Artwork" xmlns="http://www.w3.org/2000/svg" xmlns:xlink="http://www.w3.org/1999/xlink" x="0px" y="0px"
	 viewBox="0 0 512 512" style="enable-background:new 0 0 512 512;" xml:space="preserve">
<style type="text/css">
	.st0{fill:#FFFFFF;}
</style>
<g>
	<path class="st0" d="M170.1,222.2h-23.7c-2.8,0-5,2.2-5,5v144.2c0,2.8,2.2,5,5,5h23.7c2.8,0,5-2.2,5-5V227.2
		C175.1,224.4,172.8,222.2,170.1,222.2z"/>
	<path class="st0" d="M227.9,253.6h-23.7c-2.8,0-5,2.2-5,5v112.8c0,2.8,2.2,5,5,5h23.7c2.8,0,5-2.2,5-5V258.6
		C232.9,255.9,230.6,253.6,227.9,253.6z"/>
	<path class="st0" d="M285.6,278h-23.7c-2.8,0-5,2.2-5,5v88.4c0,2.8,2.2,5,5,5h23.7c2.8,0,5-2.2,5-5V283
		C290.6,280.3,288.4,278,285.6,278z"/>
	<path class="st0" d="M343.4,309.4h-23.7c-2.8,0-5,2.2-5,5v57.1c0,2.8,2.2,5,5,5h23.7c2.8,0,5-2.2,5-5v-57.1
		C348.4,311.6,346.2,309.4,343.4,309.4z"/>
	<path class="st0" d="M401.2,335.1h-23.7c-2.8,0-5,2.2-5,5v31.4c0,2.8,2.2,5,5,5h23.7c2.8,0,5-2.2,5-5v-31.4
		C406.2,337.3,403.9,335.1,401.2,335.1z"/>
	<path class="st0" d="M446.5,88.3H101.1c-12.8,0-23.3,10.4-23.3,23.3v281.7c0,12.8,10.4,23.3,23.3,23.3h345.4
		c12.8,0,23.3-10.4,23.3-23.3V111.6C469.8,98.7,459.3,88.3,446.5,88.3z M238.9,117.6c0-2.9,2.4-5.3,5.3-5.3h31.9
		c2.9,0,5.3,2.4,5.3,5.3v10c0,2.9-2.4,5.3-5.3,5.3h-31.9c-2.9,0-5.3-2.4-5.3-5.3L238.9,117.6L238.9,117.6z M173.5,117.6
		c0-2.9,2.4-5.3,5.3-5.3h31.9c2.9,0,5.3,2.4,5.3,5.3v10c0,2.9-2.4,5.3-5.3,5.3h-31.9c-2.9,0-5.3-2.4-5.3-5.3V117.6z M109.7,117.6
		c0-2.9,2.4-5.3,5.3-5.3h31.9c2.9,0,5.3,2.4,5.3,5.3v10c0,2.9-2.4,5.3-5.3,5.3H115c-2.9,0-5.3-2.4-5.3-5.3
		C109.7,127.6,109.7,117.6,109.7,117.6z M451.1,390.2c0,3.1-2.5,5.6-5.6,5.6H102c-3.1,0-5.6-2.5-5.6-5.6V158.1
		c0-3.1,2.5-5.6,5.6-5.6h343.5c3.1,0,5.6,2.5,5.6,5.6L451.1,390.2L451.1,390.2z"/>
</g>
</svg>
